<?xml version="1.0" standalone="no"?>
<!DOCTYPE svg PUBLIC "-//W3C//DTD SVG 20010904//EN"
 "http://www.w3.org/TR/2001/REC-SVG-20010904/DTD/svg10.dtd">
<svg version="1.0" xmlns="http://www.w3.org/2000/svg"
 width="1024.000000pt" height="1536.000000pt" viewBox="0 0 1024.000000 1536.000000"
 preserveAspectRatio="xMidYMid meet">

<g transform="translate(0.000000,1536.000000) scale(0.100000,-0.100000)"
fill="#000000" stroke="none">
<path d="M2265 11965 c-114 -40 -146 -181 -73 -325 18 -36 63 -96 111 -147 71
-75 687 -666 968 -928 52 -50 174 -164 270 -255 184 -174 557 -517 799 -736
255 -231 234 -204 264 -322 85 -339 300 -690 551 -898 158 -131 334 -232 480
-276 39 -11 74 -24 78 -28 15 -13 -127 -58 -239 -75 -290 -46 -597 18 -809
170 -134 95 -284 269 -391 453 -191 328 -342 488 -564 600 -466 234 -1045 11
-1219 -470 -30 -82 -41 -151 -41 -251 0 -230 63 -395 208 -549 109 -116 233
-188 387 -228 104 -27 304 -29 420 -5 157 33 275 100 275 156 0 32 -27 76 -51
82 -13 4 -58 -8 -111 -29 -116 -45 -170 -55 -298 -55 -371 0 -649 270 -650
631 0 262 167 502 414 595 35 13 103 29 152 36 246 33 468 -47 652 -233 92
-94 150 -172 247 -333 217 -362 365 -511 636 -639 191 -91 352 -122 583 -113
215 9 430 65 603 157 l71 38 99 -9 c215 -19 379 -8 558 37 177 45 310 102 462
200 436 280 703 692 773 1193 16 111 13 361 -5 481 -84 560 -413 995 -947
1250 -402 191 -841 216 -1251 69 -472 -168 -829 -511 -1010 -970 -31 -78 -71
-233 -88 -342 l-12 -78 -51 49 c-28 27 -152 138 -276 247 -124 109 -229 203
-235 209 -27 30 -464 406 -775 668 -722 606 -750 631 -750 673 0 26 31 65 53
65 6 0 63 -25 125 -55 63 -30 120 -55 127 -55 29 0 65 41 65 74 0 42 -26 75
-103 130 -177 126 -367 182 -482 141z m4068 -831 c43 -8 80 -43 177 -169 183
-238 324 -539 379 -811 32 -160 41 -257 41 -457 1 -345 -44 -581 -161 -851
-103 -236 -291 -478 -483 -622 l-80 -59 -120 0 c-118 1 -206 16 -206 35 0 6
37 28 82 51 386 194 641 562 735 1062 25 134 25 573 0 705 -72 378 -206 664
-454 971 -38 45 -77 94 -88 107 -17 22 -18 26 -5 34 17 11 126 13 183 4z
m-345 -55 c9 -12 48 -58 86 -103 204 -239 332 -460 416 -715 38 -116 76 -279
67 -287 -9 -9 -179 19 -182 30 -52 201 -151 418 -317 694 -109 182 -178 318
-178 355 0 11 13 24 33 32 44 19 54 18 75 -6z m841 -87 c61 -32 81 -61 157
-240 78 -180 136 -379 150 -513 l6 -65 -45 -49 -45 -50 -11 40 c-6 22 -22 90
-37 150 -61 250 -194 530 -351 737 -24 31 -43 61 -43 67 0 13 143 -37 219 -77z
m-1079 11 c19 -59 119 -255 204 -398 43 -71 104 -184 137 -250 67 -136 141
-327 131 -336 -6 -6 -164 22 -197 35 -7 2 -26 33 -41 68 -16 35 -62 128 -103
208 -174 340 -198 390 -235 482 -45 114 -55 168 -33 186 17 14 85 40 109 41
11 1 21 -12 28 -36z m-235 -217 c50 -127 76 -181 228 -480 54 -105 97 -193 97
-198 0 -4 -8 -8 -18 -8 -20 0 -138 39 -184 60 -62 29 -226 343 -288 549 -26
87 -25 113 3 138 39 37 100 74 108 66 4 -5 28 -62 54 -127z m1639 25 c85 -68
256 -246 256 -267 0 -18 -140 -234 -151 -234 -4 0 -10 21 -14 48 -13 87 -102
356 -163 495 -8 17 14 4 72 -42z m-1909 -224 c25 -64 66 -162 90 -217 23 -55
39 -100 34 -100 -15 0 -218 106 -294 153 -38 24 -71 50 -73 58 -6 32 171 250
189 232 4 -4 28 -61 54 -126z m2290 -229 c14 -29 25 -68 25 -86 0 -54 -64
-164 -188 -322 -72 -91 -265 -290 -281 -290 -11 0 -21 77 -21 157 l0 65 95
100 c95 100 189 219 281 356 26 39 52 72 57 72 4 0 19 -24 32 -52z m-2573 -28
c39 -30 298 -162 443 -226 219 -96 404 -153 677 -209 69 -14 432 -65 464 -65
19 0 31 -27 39 -86 10 -77 -1 -84 -139 -84 -203 0 -504 48 -755 121 -270 79
-533 205 -747 360 -95 68 -97 75 -59 157 26 57 39 62 77 32z m2709 -302 c24
-112 21 -126 -53 -235 -120 -177 -349 -411 -503 -513 -65 -43 -89 -50 -81 -22
2 9 10 56 17 104 6 48 15 91 18 96 3 4 33 28 66 52 165 120 332 299 445 477
36 57 68 103 71 103 4 0 12 -28 20 -62z m-2731 -54 c132 -90 343 -200 500
-259 286 -109 632 -177 972 -192 105 -4 151 -10 159 -20 15 -17 3 -134 -16
-160 -12 -16 -28 -18 -157 -17 -462 3 -1026 150 -1372 358 -113 68 -255 172
-263 192 -5 13 11 126 23 167 3 9 11 17 17 17 7 0 69 -39 137 -86z m-112 -327
c402 -279 1051 -466 1616 -467 l69 0 -7 -32 c-3 -17 -17 -55 -30 -84 -22 -47
-29 -54 -62 -60 -54 -10 -286 3 -449 25 -247 34 -458 86 -665 163 -239 88
-547 263 -561 318 -11 41 -10 190 1 190 6 0 45 -24 88 -53z m2879 -97 c-11
-180 -11 -182 -151 -317 -109 -107 -216 -190 -377 -295 -74 -49 -259 -141
-267 -133 -3 3 0 20 7 38 7 18 26 68 43 112 27 74 33 83 74 105 81 42 202 127
291 203 141 119 315 305 352 375 26 49 34 24 28 -88z m-2687 -389 c140 -71
313 -140 440 -176 52 -14 99 -30 104 -35 14 -14 -81 -25 -204 -24 -83 1 -138
7 -196 22 -93 25 -240 84 -285 116 -33 23 -86 129 -96 194 l-6 36 64 -37 c35
-21 116 -64 179 -96z m2550 -183 c-93 -181 -216 -346 -338 -452 -31 -27 -56
-30 -35 -4 10 13 85 206 117 303 15 45 25 55 94 102 42 28 106 76 142 106 36
30 67 53 69 51 2 -2 -20 -50 -49 -106z m-1647 -103 c27 -4 47 -11 47 -19 0
-14 -109 -98 -197 -150 -123 -73 -321 -130 -491 -142 l-87 -7 -77 81 c-88 95
-173 216 -154 220 7 2 52 -9 100 -22 236 -69 448 -62 671 23 47 17 92 28 110
26 17 -2 51 -7 78 -10z m457 -36 c0 -21 -121 -178 -188 -245 -125 -124 -267
-210 -423 -258 -138 -42 -217 -32 -348 47 -66 40 -75 57 -29 57 58 0 240 47
323 83 158 68 254 132 382 253 l78 73 103 1 c67 0 102 -4 102 -11z m725 -177
c-37 -93 -138 -262 -192 -322 -65 -73 -137 -110 -293 -154 -52 -15 -180 -36
-180 -30 0 2 53 56 118 121 84 84 140 151 195 235 60 91 84 119 105 124 37 8
167 60 222 89 25 13 47 19 48 14 2 -5 -8 -40 -23 -77z"/>
<path d="M1610 7045 c-20 -24 -4 -58 36 -80 64 -34 64 -33 64 -543 0 -253 -3
-474 -6 -491 -5 -22 -21 -41 -56 -66 -41 -30 -49 -40 -46 -63 l3 -27 330 -3
c369 -3 444 5 550 57 135 67 196 153 203 287 9 179 -69 275 -278 341 -9 3 4
14 35 30 113 57 165 140 165 264 0 123 -47 197 -163 255 -91 47 -155 54 -503
54 -273 0 -323 -2 -334 -15z m636 -124 c72 -32 111 -114 100 -208 -3 -30 -13
-67 -21 -83 -38 -74 -133 -113 -262 -108 l-78 3 -3 204 c-2 157 1 207 10 213
21 15 208 -1 254 -21z m22 -537 c47 -19 88 -58 115 -109 16 -31 21 -59 21
-120 1 -122 -32 -188 -117 -232 -47 -25 -65 -28 -179 -31 l-128 -4 0 256 0
256 125 0 c91 0 136 -4 163 -16z"/>
<path d="M2844 7045 c-11 -27 5 -59 39 -80 59 -37 58 -31 57 -545 0 -259 -3
-478 -6 -487 -14 -44 -29 -63 -61 -78 -30 -14 -34 -21 -31 -48 l3 -32 230 0
230 0 3 30 c3 27 -2 34 -35 51 -21 11 -43 31 -50 44 -10 19 -13 145 -13 516 0
473 1 492 20 516 10 14 33 31 49 38 35 14 44 32 31 65 l-10 25 -225 0 c-191 0
-227 -2 -231 -15z"/>
<path d="M3904 7033 c-6 -23 -1 -32 29 -59 21 -17 37 -40 37 -50 0 -27 -387
-995 -408 -1019 -9 -11 -31 -30 -48 -43 -31 -21 -47 -60 -34 -82 4 -7 63 -10
181 -8 l174 3 3 27 c2 14 -3 31 -10 37 -7 6 -28 22 -45 37 -42 33 -42 54 6
174 l37 95 227 3 c263 3 229 19 283 -137 37 -106 35 -117 -22 -154 -28 -18
-34 -27 -32 -52 l3 -30 241 -3 c209 -2 243 0 248 13 9 25 -11 64 -38 71 -53
13 -72 53 -300 623 -125 311 -232 568 -239 573 -6 4 -74 8 -149 8 l-138 0 -6
-27z m240 -519 c47 -126 86 -233 86 -237 0 -4 -81 -7 -180 -7 -141 0 -180 3
-180 13 0 14 151 411 170 447 6 12 13 20 14 18 2 -1 42 -107 90 -234z"/>
<path d="M5196 7044 c-13 -33 -5 -53 30 -74 19 -12 41 -32 49 -44 8 -12 54
-118 104 -236 235 -568 374 -896 383 -907 7 -9 39 -13 93 -13 94 0 98 3 134
90 13 30 48 114 78 185 30 72 79 189 108 260 132 323 238 572 254 599 10 16
41 40 67 55 44 24 49 29 49 61 l0 35 -185 0 -185 0 -3 -27 c-3 -22 4 -32 38
-54 22 -15 43 -37 46 -50 10 -40 23 -3 -256 -707 -66 -168 -77 -182 -92 -122
-3 11 -72 187 -153 390 -81 204 -150 388 -152 411 -5 39 -3 42 38 70 35 24 44
36 44 59 l0 30 -241 3 c-214 2 -242 1 -248 -14z"/>
<path d="M6827 7053 c-17 -17 -5 -55 28 -84 27 -25 33 -37 29 -56 -14 -54
-385 -969 -406 -999 -12 -17 -35 -40 -50 -49 -34 -20 -51 -49 -43 -76 6 -19
14 -19 183 -17 l177 3 3 30 c3 27 -2 34 -37 53 -31 18 -42 31 -47 57 -7 37 -4
47 38 158 l29 77 232 0 232 0 18 -47 c55 -146 59 -163 47 -192 -6 -15 -29 -38
-51 -50 -35 -20 -40 -27 -37 -54 l3 -32 247 -3 248 -2 6 27 c6 21 2 30 -15 42
-95 67 -91 60 -267 506 -69 176 -157 401 -196 500 -39 99 -78 188 -86 198 -13
15 -34 17 -147 17 -72 0 -135 -3 -138 -7z m233 -542 c49 -128 90 -234 90 -237
0 -2 -83 -4 -185 -4 -148 0 -185 3 -185 13 0 13 163 437 176 458 3 6 8 9 10 7
2 -2 44 -109 94 -237z"/>
<path d="M7821 7051 c-10 -7 -19 -54 -30 -166 -13 -136 -13 -158 0 -166 27
-17 50 -9 67 22 54 99 94 148 140 171 43 21 63 23 221 26 l175 4 -16 -23 c-44
-70 -374 -616 -492 -815 -113 -193 -136 -238 -136 -272 0 -22 6 -45 14 -51 9
-8 140 -10 467 -9 l453 3 13 80 c7 44 14 125 15 180 l3 100 -26 3 c-23 3 -31
-6 -67 -67 -47 -78 -117 -145 -171 -162 -38 -12 -401 -25 -401 -15 0 4 32 59
72 124 353 579 558 933 565 977 11 67 26 65 -436 65 -230 0 -422 -4 -430 -9z"/>
<path d="M8283 5511 c-17 -11 -35 -26 -40 -34 -4 -8 -36 -45 -70 -82 -63 -67
-73 -91 -51 -113 19 -19 38 -15 122 28 44 22 93 40 112 40 18 0 62 -16 99 -36
79 -41 128 -44 133 -6 3 17 -16 45 -74 108 -42 47 -89 91 -105 99 -39 20 -88
19 -126 -4z"/>
<path d="M1942 5191 c-97 -27 -146 -50 -219 -104 -101 -75 -192 -196 -228
-302 -38 -115 -36 -336 4 -458 88 -263 368 -432 643 -387 113 18 225 77 310
161 78 78 101 121 86 155 -19 40 -36 35 -110 -32 -40 -35 -97 -77 -128 -92
-49 -24 -66 -27 -160 -27 -132 0 -186 21 -261 103 -96 105 -132 215 -132 402
0 175 45 310 130 392 97 94 267 106 359 26 48 -43 74 -97 81 -174 3 -36 12
-72 20 -79 25 -26 77 -28 127 -6 112 49 111 211 -2 313 -114 103 -355 153
-520 109z"/>
<path d="M4365 5194 c-123 -27 -208 -75 -310 -178 -146 -147 -192 -268 -181
-476 10 -198 59 -313 186 -433 164 -158 381 -211 612 -151 206 53 379 226 435
435 26 100 24 283 -6 379 -71 231 -259 389 -511 429 -85 14 -140 13 -225 -5z
m273 -143 c89 -46 178 -184 207 -322 19 -88 19 -254 1 -340 -19 -87 -65 -187
-111 -237 -20 -23 -62 -54 -93 -69 -48 -24 -69 -28 -137 -27 -66 0 -89 4 -130
26 -156 81 -234 273 -222 548 6 130 21 199 63 282 48 96 126 155 219 168 59 8
158 -6 203 -29z"/>
<path d="M5780 5194 c-201 -43 -376 -193 -451 -387 -27 -72 -32 -98 -37 -208
-8 -217 42 -364 167 -490 75 -74 133 -109 241 -146 100 -35 261 -36 361 -4
187 60 380 279 284 323 -23 10 -29 7 -77 -44 -96 -99 -184 -138 -314 -138
-181 0 -322 124 -370 326 -22 91 -22 277 0 363 22 86 81 195 125 231 53 45
120 63 205 58 140 -9 215 -85 232 -237 6 -60 8 -64 41 -78 65 -27 141 6 174
75 19 39 20 49 10 100 -19 97 -74 156 -196 213 -114 54 -267 70 -395 43z"/>
<path d="M2706 5182 c-3 -3 -6 -19 -6 -36 0 -26 7 -35 38 -51 25 -14 41 -31
49 -55 8 -25 12 -163 12 -480 1 -493 1 -495 -64 -530 -33 -18 -43 -44 -25 -65
18 -22 422 -22 440 0 19 23 7 49 -32 67 -58 28 -62 42 -66 251 l-4 187 81 0
82 0 28 -62 c78 -173 173 -358 197 -387 14 -17 40 -39 56 -47 35 -18 193 -30
261 -20 44 7 47 9 47 37 0 24 -6 33 -32 44 -61 25 -108 89 -229 312 -44 81
-81 152 -82 157 -1 5 30 27 68 48 80 44 106 71 143 148 22 46 27 68 26 140 0
139 -54 226 -176 287 -88 44 -145 51 -485 56 -177 3 -324 3 -327 -1z m535
-122 c107 -20 165 -90 176 -208 13 -142 -57 -240 -186 -262 -37 -6 -92 -10
-122 -8 l-54 3 -3 230 c-1 126 0 235 2 242 7 16 110 17 187 3z"/>
<path d="M6530 5176 c-20 -20 -11 -55 19 -71 16 -8 39 -27 50 -41 21 -26 21
-35 21 -486 0 -507 -1 -513 -61 -538 -38 -16 -53 -43 -39 -70 10 -19 21 -20
223 -20 117 0 217 4 224 8 11 7 16 26 14 50 0 7 -16 20 -35 29 -56 26 -60 46
-64 276 l-3 207 265 0 266 0 0 -176 c0 -232 -10 -269 -91 -325 -21 -14 -22
-19 -11 -43 l12 -26 214 0 c174 0 216 3 226 15 17 21 8 48 -21 62 -14 7 -34
22 -45 34 -18 20 -19 40 -19 504 l0 484 29 30 c17 17 35 31 42 31 16 0 27 32
18 54 -5 14 -29 16 -168 18 -305 5 -279 8 -290 -29 -5 -15 -1 -27 12 -38 11
-10 36 -32 56 -50 l36 -33 0 -196 0 -196 -265 0 -265 0 0 183 c0 213 7 250 56
279 35 21 48 64 22 73 -30 10 -418 11 -428 1z"/>
<path d="M7941 5180 c-20 -13 -19 -52 1 -68 12 -9 32 -28 45 -41 l23 -24 0
-477 0 -477 -25 -27 c-13 -14 -28 -26 -34 -26 -23 0 -39 -30 -32 -57 l7 -28
430 -2 c242 -2 435 1 443 6 16 10 50 180 51 253 0 39 -4 49 -22 59 -19 10 -25
8 -42 -14 -12 -14 -32 -44 -46 -68 -57 -96 -142 -129 -332 -129 l-128 0 0 230
0 230 101 0 c125 0 157 -13 187 -76 19 -39 26 -45 50 -42 l27 3 3 155 c3 183
0 200 -32 200 -18 0 -31 -11 -50 -44 -34 -59 -79 -76 -196 -76 l-90 0 0 209 0
210 23 3 c12 2 79 1 149 -2 121 -5 129 -7 170 -36 24 -16 60 -54 81 -84 21
-30 45 -59 53 -63 25 -14 44 11 44 57 0 64 -27 227 -40 240 -8 8 -126 11 -411
11 -221 0 -404 -2 -408 -5z"/>
</g>
</svg>
